# xmcd
#
# Track frame offsets: 
#        150
#        11906
#        24192
#        31620
#        42054
#        54127
#        70831
#        81585
#        95153
#        107564
#        124157
#        133422
#        145224
#        153033
#        165152
#        178449
#        193402
#        208813
#        224035
#        236714
#
# Disc length: 3359 seconds
#
# Revision: 0
# Processed by: cddbd v1.5.1PL2 Copyright (c) Steve Scherf et al.
# Submitted via: ExactAudioCopy v0.95b4
#
DISCID=220d1d14
DTITLE=Roy Drusky - 20 Greatest Hits (tape)
DYEAR=1985
DGENRE=
TTITLE0=Three Hearts in a Tangle
TTITLE1=If the Whole World Stopped Lovin'
TTITLE2=Second Hand Rose
TTITLE3=Strangers
TTITLE4=Yes, Mr. Peters
TTITLE5=The Last Farewell
TTITLE6=Yesterday
TTITLE7=Those Were the Days
TTITLE8=Don't Let the Sun Catch You Crying
TTITLE9=A Whiter Shade of Pale
TTITLE10=White Lightning Express
TTITLE11=Another
TTITLE12=Peel Me a Nanner
TTITLE13=Anymore
TTITLE14=Jody and The Kid
TTITLE15=Say You'll Stay Until Tomorrow
TTITLE16=Alone Again Naturally
TTITLE17=Welcome Home
TTITLE18=Beautiful Sunday
TTITLE19=You've Got Your Trouble
EXTD=
EXTT0=
EXTT1=
EXTT2=
EXTT3=
EXTT4=
EXTT5=
EXTT6=
EXTT7=
EXTT8=
EXTT9=
EXTT10=
EXTT11=
EXTT12=
EXTT13=
EXTT14=
EXTT15=
EXTT16=
EXTT17=
EXTT18=
EXTT19=
PLAYORDER=
